<svg xmlns="http://www.w3.org/2000/svg" xmlns:xlink="http://www.w3.org/1999/xlink" contentStyleType="text/css" data-diagram-type="CLASS" height="547px" preserveAspectRatio="none" style="width:139px;height:547px;background:#FFFFFF;" version="1.1" viewBox="0 0 139 547" width="139px" zoomAndPan="magnify"><defs/><g><!--class User--><g class="entity" data-entity="User" data-source-line="2" data-uid="ent0002" id="entity_User"><rect fill="#F1F1F1" height="115.1997" rx="2.5" ry="2.5" style="stroke:#181818;stroke-width:0.5;" width="123.2575" x="8.17" y="7"/><ellipse cx="50.9366" cy="23" fill="#ADD1B2" rx="11" ry="11" style="stroke:#181818;stroke-width:1;"/><path d="M49.796,24.0625 L51.1085,24.0625 L51.1085,24.1094 C51.1085,24.5156 51.1241,24.6719 51.2335,24.8281 C51.4054,25.0781 51.7023,25.25 52.0148,25.25 C52.296,25.25 52.5929,25.1094 52.7648,24.8906 C52.8898,24.7031 52.9366,24.5625 52.9366,24.1094 L52.9366,22.2656 C52.9366,21.9375 52.921,21.8281 52.8585,21.6563 C52.7491,21.3594 52.3898,21.1094 52.0148,21.1094 C51.7179,21.1094 51.4523,21.25 51.2804,21.4688 C51.1398,21.6563 51.1085,21.8281 51.1085,22.2656 L51.1085,22.3281 L49.796,22.3281 L49.796,20.1563 L53.6398,20.1563 L53.6398,20.9063 C53.6398,21.2969 53.671,21.4844 53.7804,21.6406 C53.9523,21.8906 54.2491,22.0625 54.5616,22.0625 C54.8585,22.0625 55.1241,21.9375 55.3116,21.7031 C55.4523,21.5156 55.4835,21.375 55.4835,20.9063 L55.4835,18.4063 L47.7804,18.4063 C47.3273,18.4063 47.2023,18.4219 47.0304,18.5313 C46.7648,18.7031 46.5929,18.9688 46.5929,19.2813 C46.5929,19.5625 46.7179,19.8281 46.9679,20 C47.1554,20.125 47.3429,20.1563 47.7804,20.1563 L47.9679,20.1563 L47.9679,26.25 L47.7804,26.25 C47.3585,26.25 47.2023,26.2813 47.0304,26.375 C46.7648,26.5313 46.5929,26.8125 46.5929,27.1094 C46.5929,27.6875 46.9991,28 47.7804,28 L55.8585,28 L55.8585,25.4688 C55.8585,25.0625 55.8273,24.8906 55.7179,24.7344 C55.546,24.4688 55.2648,24.3125 54.9366,24.3125 C54.6554,24.3125 54.3741,24.4531 54.1866,24.6719 C54.046,24.8594 54.0148,25.0156 54.0148,25.4688 L54.0148,26.25 L49.796,26.25 L49.796,24.0625 Z " fill="#000000"/><text fill="#000000" font-family="sans-serif" font-size="14" lengthAdjust="spacing" textLength="29.5539" x="71.107" y="27.606">User</text><line style="stroke:#181818;stroke-width:0.5;" x1="9.17" x2="130.4275" y1="39" y2="39"/><ellipse cx="19.17" cy="52.9" fill="none" rx="3" ry="3" style="stroke:#038048;stroke-width:1;"/><text fill="#000000" font-family="sans-serif" font-size="14" lengthAdjust="spacing" textLength="37.3518" x="28.17" y="56.0059">id : int</text><line style="stroke:#181818;stroke-width:1;" x1="9.17" x2="130.4275" y1="63.7999" y2="63.7999"/><text fill="#000000" font-family="sans-serif" font-size="14" lengthAdjust="spacing" textLength="111.2575" x="14.17" y="80.8059">first_name : string</text><text fill="#000000" font-family="sans-serif" font-size="14" lengthAdjust="spacing" textLength="110.4875" x="14.17" y="97.6058">last_name : string</text><text fill="#000000" font-family="sans-serif" font-size="14" lengthAdjust="spacing" textLength="108.1635" x="14.17" y="114.4057">birth_date : string</text></g><!--class Property--><g class="entity" data-entity="Property" data-source-line="10" data-uid="ent0003" id="entity_Property"><rect fill="#F1F1F1" height="148.7996" rx="2.5" ry="2.5" style="stroke:#181818;stroke-width:0.5;" width="125.5955" x="7" y="199.2"/><ellipse cx="40.3104" cy="215.2" fill="#ADD1B2" rx="11" ry="11" style="stroke:#181818;stroke-width:1;"/><path d="M39.1698,216.2625 L40.4823,216.2625 L40.4823,216.3094 C40.4823,216.7156 40.4979,216.8719 40.6073,217.0281 C40.7791,217.2781 41.076,217.45 41.3885,217.45 C41.6698,217.45 41.9666,217.3094 42.1385,217.0906 C42.2635,216.9031 42.3104,216.7625 42.3104,216.3094 L42.3104,214.4656 C42.3104,214.1375 42.2948,214.0281 42.2323,213.8563 C42.1229,213.5594 41.7635,213.3094 41.3885,213.3094 C41.0916,213.3094 40.826,213.45 40.6541,213.6688 C40.5135,213.8563 40.4823,214.0281 40.4823,214.4656 L40.4823,214.5281 L39.1698,214.5281 L39.1698,212.3563 L43.0135,212.3563 L43.0135,213.1063 C43.0135,213.4969 43.0448,213.6844 43.1541,213.8406 C43.326,214.0906 43.6229,214.2625 43.9354,214.2625 C44.2323,214.2625 44.4979,214.1375 44.6854,213.9031 C44.826,213.7156 44.8573,213.575 44.8573,213.1063 L44.8573,210.6063 L37.1541,210.6063 C36.701,210.6063 36.576,210.6219 36.4041,210.7313 C36.1385,210.9031 35.9666,211.1688 35.9666,211.4813 C35.9666,211.7625 36.0916,212.0281 36.3416,212.2 C36.5291,212.325 36.7166,212.3563 37.1541,212.3563 L37.3416,212.3563 L37.3416,218.45 L37.1541,218.45 C36.7323,218.45 36.576,218.4813 36.4041,218.575 C36.1385,218.7313 35.9666,219.0125 35.9666,219.3094 C35.9666,219.8875 36.3729,220.2 37.1541,220.2 L45.2323,220.2 L45.2323,217.6688 C45.2323,217.2625 45.201,217.0906 45.0916,216.9344 C44.9198,216.6688 44.6385,216.5125 44.3104,216.5125 C44.0291,216.5125 43.7479,216.6531 43.5604,216.8719 C43.4198,217.0594 43.3885,217.2156 43.3885,217.6688 L43.3885,218.45 L39.1698,218.45 L39.1698,216.2625 Z " fill="#000000"/><text fill="#000000" font-family="sans-serif" font-size="14" lengthAdjust="spacing" textLength="52.9058" x="58.3794" y="219.806">Property</text><line style="stroke:#181818;stroke-width:0.5;" x1="8" x2="131.5955" y1="231.2" y2="231.2"/><ellipse cx="18" cy="245.1" fill="none" rx="3" ry="3" style="stroke:#038048;stroke-width:1;"/><text fill="#000000" font-family="sans-serif" font-size="14" lengthAdjust="spacing" textLength="37.3518" x="27" y="248.2059">id : int</text><line style="stroke:#181818;stroke-width:1;" x1="8" x2="131.5955" y1="255.9999" y2="255.9999"/><text fill="#000000" font-family="sans-serif" font-size="14" lengthAdjust="spacing" textLength="80.9197" x="13" y="273.0059">name : string</text><text fill="#000000" font-family="sans-serif" font-size="14" lengthAdjust="spacing" textLength="113.5955" x="13" y="289.8058">description : string</text><text fill="#000000" font-family="sans-serif" font-size="14" lengthAdjust="spacing" textLength="72.3657" x="13" y="306.6057">type : string</text><text fill="#000000" font-family="sans-serif" font-size="14" lengthAdjust="spacing" textLength="66.9057" x="13" y="323.4057">city : string</text><text fill="#000000" font-family="sans-serif" font-size="14" lengthAdjust="spacing" textLength="83.2576" x="13" y="340.2056">owner_id : int</text></g><!--class Room--><g class="entity" data-entity="Room" data-source-line="20" data-uid="ent0004" id="entity_Room"><rect fill="#F1F1F1" height="115.1997" rx="2.5" ry="2.5" style="stroke:#181818;stroke-width:0.5;" width="108.4876" x="15.55" y="425"/><ellipse cx="48.1674" cy="441" fill="#ADD1B2" rx="11" ry="11" style="stroke:#181818;stroke-width:1;"/><path d="M47.0268,442.0625 L48.3393,442.0625 L48.3393,442.1094 C48.3393,442.5156 48.3549,442.6719 48.4643,442.8281 C48.6361,443.0781 48.933,443.25 49.2455,443.25 C49.5268,443.25 49.8236,443.1094 49.9955,442.8906 C50.1205,442.7031 50.1674,442.5625 50.1674,442.1094 L50.1674,440.2656 C50.1674,439.9375 50.1518,439.8281 50.0893,439.6563 C49.9799,439.3594 49.6205,439.1094 49.2455,439.1094 C48.9486,439.1094 48.683,439.25 48.5111,439.4688 C48.3705,439.6563 48.3393,439.8281 48.3393,440.2656 L48.3393,440.3281 L47.0268,440.3281 L47.0268,438.1563 L50.8705,438.1563 L50.8705,438.9063 C50.8705,439.2969 50.9018,439.4844 51.0111,439.6406 C51.183,439.8906 51.4799,440.0625 51.7924,440.0625 C52.0893,440.0625 52.3549,439.9375 52.5424,439.7031 C52.683,439.5156 52.7143,439.375 52.7143,438.9063 L52.7143,436.4063 L45.0111,436.4063 C44.558,436.4063 44.433,436.4219 44.2611,436.5313 C43.9955,436.7031 43.8236,436.9688 43.8236,437.2813 C43.8236,437.5625 43.9486,437.8281 44.1986,438 C44.3861,438.125 44.5736,438.1563 45.0111,438.1563 L45.1986,438.1563 L45.1986,444.25 L45.0111,444.25 C44.5893,444.25 44.433,444.2813 44.2611,444.375 C43.9955,444.5313 43.8236,444.8125 43.8236,445.1094 C43.8236,445.6875 44.2299,446 45.0111,446 L53.0893,446 L53.0893,443.4688 C53.0893,443.0625 53.058,442.8906 52.9486,442.7344 C52.7768,442.4688 52.4955,442.3125 52.1674,442.3125 C51.8861,442.3125 51.6049,442.4531 51.4174,442.6719 C51.2768,442.8594 51.2455,443.0156 51.2455,443.4688 L51.2455,444.25 L47.0268,444.25 L47.0268,442.0625 Z " fill="#000000"/><text fill="#000000" font-family="sans-serif" font-size="14" lengthAdjust="spacing" textLength="37.3378" x="66.0824" y="445.606">Room</text><line style="stroke:#181818;stroke-width:0.5;" x1="16.55" x2="123.0376" y1="457" y2="457"/><ellipse cx="26.55" cy="470.9" fill="none" rx="3" ry="3" style="stroke:#038048;stroke-width:1;"/><text fill="#000000" font-family="sans-serif" font-size="14" lengthAdjust="spacing" textLength="37.3518" x="35.55" y="474.0059">id : int</text><line style="stroke:#181818;stroke-width:1;" x1="16.55" x2="123.0376" y1="481.7999" y2="481.7999"/><text fill="#000000" font-family="sans-serif" font-size="14" lengthAdjust="spacing" textLength="80.9197" x="21.55" y="498.8059">name : string</text><text fill="#000000" font-family="sans-serif" font-size="14" lengthAdjust="spacing" textLength="51.3518" x="21.55" y="515.6058">size : int</text><text fill="#000000" font-family="sans-serif" font-size="14" lengthAdjust="spacing" textLength="96.4876" x="21.55" y="532.4057">property_id : int</text></g><!--link User to Property--><g class="link" data-entity-1="User" data-entity-2="Property" data-source-line="28" data-uid="lnk5" id="link_User_Property"><path codeLine="28" d="M69.8,122.44 C69.8,146.02 69.8,173.68 69.8,198.8" fill="none" id="User-Property" style="stroke:#181818;stroke-width:1;"/><text fill="#000000" font-family="sans-serif" font-size="13" lengthAdjust="spacing" textLength="49.1401" x="70.8" y="165.277">possede</text><text fill="#000000" font-family="sans-serif" font-size="13" lengthAdjust="spacing" textLength="7.228" x="62.4086" y="142.1067">1</text><text fill="#000000" font-family="sans-serif" font-size="13" lengthAdjust="spacing" textLength="5.057" x="64.5454" y="187.4208">*</text></g><!--link Property to Room--><g class="link" data-entity-1="Property" data-entity-2="Room" data-source-line="29" data-uid="lnk6" id="link_Property_Room"><path codeLine="29" d="M69.8,348.46 C69.8,373.53 69.8,401.15 69.8,424.7" fill="none" id="Property-Room" style="stroke:#181818;stroke-width:1;"/><text fill="#000000" font-family="sans-serif" font-size="13" lengthAdjust="spacing" textLength="45.526" x="70.8" y="391.077">contient</text><text fill="#000000" font-family="sans-serif" font-size="13" lengthAdjust="spacing" textLength="7.228" x="62.4881" y="368.1573">1</text><text fill="#000000" font-family="sans-serif" font-size="13" lengthAdjust="spacing" textLength="5.057" x="64.4841" y="413.4361">*</text></g><!--SRC=[ZP112y8m38Nl_HMXHsK7h_iL8dWUSuqQS6r90gBYVpTEsJhPmKj9FrxVUob69Rt1Nf3XuG3M5A06YcfpLTbn91PjOjkZSL6cU39wQHVWWLZFJMYre4_dy1EnvPIHRLYC-VKAA1rJLagnn7hBCrdtTYxkwHgHcz5yIj-brF-NB7J7KP6_fMUMmsVvZRVtu5T-sgo6d4Gme1jH8HigrD0bQsIjt0i0]--></g></svg>